<svg version="1.1" xmlns="http://www.w3.org/2000/svg" viewBox="0 0 1024 1024"><path d="M512 156.592356c31.266133 0 61.394489 4.846933 89.679644 13.835377l0.6144 62.611911a14.153956 14.153956 0 0 0 21.765689 11.798756l1.001245-0.694044 50.210133-38.456889a296.812089 296.812089 0 0 1 112.423822 139.264l-49.516089 40.903111a14.153956 14.153956 0 0 0 4.630756 24.3712l1.069511 0.3072 62.748445 15.132444c0.796444 8.8064 1.194667 17.737956 1.194666 26.749156a294.456889 294.456889 0 0 1-39.844978 148.366222l-64.113777-14.142578a14.153956 14.153956 0 0 0-16.384 18.602667l0.455111 1.069511 27.602489 60.780089a294.889244 294.889244 0 0 1-160.893156 78.097067l-29.980444-59.960889a14.153956 14.153956 0 0 0-24.758045-1.024l-0.568889 1.024-29.969066 59.960889A294.877867 294.877867 0 0 1 308.451556 667.079111l27.613866-60.757333a14.153956 14.153956 0 0 0-14.848-19.876978l-1.092266 0.193422-64.125156 14.1312A294.456889 294.456889 0 0 1 216.177778 452.414578c0-9.022578 0.398222-17.942756 1.194666-26.760534l62.748445-15.132444a14.153956 14.153956 0 0 0 6.599111-23.847822l-0.910222-0.8192-49.504711-40.903111a296.812089 296.812089 0 0 1 112.412444-139.264l50.221511 38.456889a14.153956 14.153956 0 0 0 22.710045-10.001067l0.056889-1.103645 0.6144-62.611911A295.662933 295.662933 0 0 1 512 156.592356z m0 187.915377a106.382222 106.382222 0 1 0 0 212.764445 106.382222 106.382222 0 0 0 0-212.764445z" fill="#5095FF" /><path d="M296.994133 684.259556c22.152533 22.402844 46.603378 40.732444 73.363911 55.034311 26.760533 14.290489 56.103822 22.846578 88.041245 25.679644l-57.230222 102.434133c-16.884622-2.434844-31.880533-20.309333-44.976356-53.623466a34.133333 34.133333 0 0 0-38.866489-20.8896c-39.901867 8.487822-65.592889 7.281778-77.061689-3.595378l56.7296-105.028267zM722.784711 684.259556c-22.152533 22.402844-46.614756 40.732444-73.363911 55.034311-26.760533 14.290489-56.103822 22.846578-88.041244 25.679644l57.230222 102.434133c16.884622-2.434844 31.880533-20.309333 44.976355-53.623466a34.133333 34.133333 0 0 1 38.866489-20.8896c39.901867 8.487822 65.592889 7.281778 77.061689-3.595378l-56.7296-105.028267z" fill="#7CAFFE" /></svg>